<svg width="200" height="122" viewBox="0 0 200 122" fill="none" xmlns="http://www.w3.org/2000/svg">
<path d="M199.691 51.7878H194.36H172.962H132.224V71.7061H171.621C171.316 73.2963 170.963 74.8455 170.56 76.3538C168.907 82.4952 166.84 88.0005 164.36 92.8694C161.879 97.7383 159.179 101.971 156.257 105.567C153.336 109.164 150.58 112.151 147.99 114.531C145.399 116.91 143.195 118.736 141.376 120.008C139.557 121.225 138.51 121.889 138.234 122H145.51C147.659 121.059 150.47 119.759 153.942 118.099C157.47 116.384 161.245 114.254 165.269 111.709C169.293 109.108 173.344 106.038 177.422 102.497C181.556 98.9556 185.277 94.9166 188.584 90.3796C191.891 85.7873 194.591 80.6417 196.686 74.9429C198.78 69.1887 199.828 62.8259 199.828 55.8544C199.828 54.5306 199.782 53.1751 199.691 51.7878Z" fill="black"/>
<path d="M84.6601 45.7293C85.0459 50.0449 85.2388 54.3882 85.2388 58.7592V122H111.447V58.7592C111.447 54.3882 111.64 50.0449 112.026 45.7293C112.467 41.3583 113.156 37.2086 114.093 33.2803C115.03 29.2966 116.215 25.6172 117.648 22.2422C119.136 18.8118 120.927 15.8517 123.022 13.3619C125.116 10.8168 127.541 8.82495 130.297 7.38639C133.053 5.94784 136.195 5.22857 139.722 5.22857C144.132 5.22857 148.348 6.39047 152.372 8.71429C156.395 11.0381 159.923 14.3855 162.954 18.7565C165.579 22.427 167.746 26.798 169.454 31.8694H195.209C195.184 31.8089 195.158 31.7483 195.132 31.6878C195.099 31.61 195.066 31.5322 195.032 31.4544C193.324 27.3048 191.036 23.3488 188.17 19.5864C185.359 15.7687 181.804 12.4213 177.505 9.54422C173.261 6.61179 168.218 4.28798 162.375 2.57279C156.588 0.8576 149.891 0 142.285 0C136.608 0 131.455 0.497959 126.825 1.49388C122.25 2.43447 118.144 3.76236 114.506 5.47755C110.868 7.13741 107.644 9.10158 104.833 11.3701C102.022 13.6385 99.5969 16.073 97.5575 18.6735C95.5182 16.073 93.1757 13.6385 90.5301 11.3701C87.8844 9.10158 84.853 7.13741 81.4357 5.47755C78.0185 3.76236 74.1878 2.43447 69.9438 1.49388C65.7549 0.497959 61.0699 0 55.8889 0C48.0622 0 41.2553 1.07891 35.4679 3.23673C29.6806 5.39456 24.7201 8.21633 20.5863 11.702C16.4525 15.1878 13.0352 19.1438 10.3345 23.5701C8.6999 26.3048 7.27572 29.0713 6.06194 31.8694H30.5177C31.8131 27.8924 33.4081 24.2683 35.3026 20.9973C38.0585 16.1837 41.3655 12.366 45.2237 9.54422C49.137 6.66712 53.5464 5.22857 58.4518 5.22857C61.8691 5.22857 64.9006 5.94784 67.5462 7.38639C70.2469 8.82495 72.5894 10.8168 74.5736 13.3619C76.5579 15.8517 78.2114 18.8118 79.5342 22.2422C80.9121 25.6172 82.0145 29.2966 82.8412 33.2803C83.7231 37.2086 84.3294 41.3583 84.6601 45.7293Z" fill="#005FED"/>
<path d="M27.9797 71.7061C28.312 73.6197 28.7136 75.4732 29.1846 77.2667C30.8381 83.2975 32.905 88.6921 35.3853 93.4504C37.8655 98.2086 40.5663 102.358 43.4875 105.899C46.4087 109.44 49.137 112.373 51.6724 114.697C54.2629 117.02 56.4676 118.791 58.2865 120.008C60.1605 121.225 61.2353 121.889 61.5108 122H29.846C28.7988 121.502 27.3382 120.395 25.4642 118.68C23.6453 116.965 21.606 114.752 19.3462 112.041C17.1415 109.33 14.8817 106.176 12.5667 102.58C10.3069 98.9279 8.24003 94.9719 6.36604 90.7116C4.49206 86.3959 2.94877 81.8036 1.73619 76.9347C0.578731 72.0104 0 66.9202 0 61.664C0 58.8096 0.218026 55.5175 0.654079 51.7878H2.23688H26.9287H64.3723V71.7061H27.9797Z" fill="black"/>
</svg>
