<svg width="200" height="122" viewBox="0 0 200 122" fill="none" xmlns="http://www.w3.org/2000/svg">
<path d="M199.863 51.7878H194.527H173.111H132.338V71.7061H171.769C171.464 73.2963 171.11 74.8455 170.707 76.3537C169.053 82.4953 166.984 88.0005 164.501 92.8694C162.019 97.7383 159.316 101.971 156.392 105.567C153.468 109.164 150.71 112.151 148.118 114.531C145.525 116.91 143.318 118.736 141.498 120.008C139.677 121.225 138.629 121.889 138.353 122H145.635C147.787 121.059 150.6 119.759 154.075 118.099C157.606 116.384 161.385 114.254 165.412 111.709C169.439 109.108 173.493 106.038 177.575 102.497C181.713 98.9556 185.436 94.9166 188.746 90.3796C192.056 85.7873 194.759 80.6417 196.856 74.9429C198.952 69.1887 200 62.8259 200 55.8544C200 54.5306 199.954 53.1751 199.863 51.7878Z" fill="black"/>
<path d="M84.7331 45.7293C85.1193 50.0449 85.3124 54.3882 85.3124 58.7592V122H111.543V58.7592C111.543 54.3882 111.736 50.0449 112.122 45.7293C112.564 41.3583 113.253 37.2086 114.191 33.2803C115.129 29.2966 116.315 25.6172 117.749 22.2422C119.239 18.8118 121.032 15.8517 123.128 13.3619C125.224 10.8168 127.651 8.82495 130.41 7.38639C133.168 5.94785 136.312 5.22857 139.843 5.22857C144.256 5.22857 148.476 6.39047 152.503 8.71429C156.53 11.0381 160.061 14.3855 163.095 18.7565C165.722 22.427 167.891 26.798 169.6 31.8694H195.378C195.352 31.8089 195.326 31.7483 195.301 31.6878C195.268 31.61 195.234 31.5322 195.201 31.4544C193.491 27.3048 191.201 23.3488 188.333 19.5864C185.519 15.7687 181.961 12.4213 177.658 9.54422C173.411 6.61179 168.363 4.28798 162.516 2.57279C156.723 0.8576 150.021 0 142.408 0C136.726 0 131.568 0.497959 126.934 1.49388C122.356 2.43447 118.246 3.76236 114.605 5.47755C110.964 7.13741 107.737 9.10158 104.923 11.3701C102.11 13.6385 99.6828 16.073 97.6417 18.6735C95.6006 16.073 93.2561 13.6385 90.6082 11.3701C87.9603 9.10158 84.9262 7.13741 81.506 5.47755C78.0858 3.76236 74.2518 2.43447 70.0041 1.49388C65.8116 0.497959 61.1226 0 55.9371 0C48.1037 0 41.2909 1.07891 35.4986 3.23673C29.7062 5.39456 24.7414 8.21633 20.6041 11.702C16.4667 15.1878 13.0465 19.1438 10.3434 23.5701C8.70741 26.3048 7.282 29.0713 6.06717 31.8694H30.5441C31.8406 27.8924 33.4369 24.2683 35.3331 20.9973C38.0913 16.1837 41.4012 12.366 45.2627 9.54422C49.1794 6.66712 53.5926 5.22857 58.5023 5.22857C61.9225 5.22857 64.9566 5.94785 67.6045 7.38639C70.3075 8.82495 72.652 10.8168 74.638 13.3619C76.6239 15.8517 78.2789 18.8118 79.6028 22.2422C80.9819 25.6172 82.0852 29.2966 82.9127 33.2803C83.7953 37.2086 84.4021 41.3583 84.7331 45.7293Z" fill="#3B82F6"/>
<path d="M28.0039 71.7061C28.3364 73.6197 28.7383 75.4732 29.2098 77.2667C30.8647 83.2975 32.9334 88.6921 35.4158 93.4504C37.8982 98.2086 40.6013 102.358 43.525 105.899C46.4488 109.44 49.1794 112.373 51.717 114.697C54.3097 117.02 56.5163 118.791 58.3368 120.008C60.2124 121.225 61.2881 121.889 61.5639 122H29.8717C28.8236 121.502 27.3617 120.395 25.4861 118.68C23.6657 116.965 21.6246 114.752 19.3628 112.041C17.1563 109.33 14.8945 106.176 12.5776 102.58C10.3158 98.9279 8.24714 94.9719 6.37154 90.7116C4.49593 86.3959 2.95132 81.8036 1.73769 76.9347C0.57923 72.0104 0 66.9202 0 61.664C0 58.8096 0.218214 55.5175 0.654644 51.7878H2.23881H26.952H64.4279V71.7061H28.0039Z" fill="black"/>
</svg>
