<svg width="38" height="38" viewBox="0 0 38 38" fill="none" xmlns="http://www.w3.org/2000/svg">
<g clip-path="url(#clip0_257_56)">
<path d="M19 1C23.7739 1 28.3519 2.89681 31.7275 6.27246C35.1032 9.64812 37 14.2261 37 19C37 23.7739 35.1032 28.3519 31.7275 31.7275C28.3519 35.1032 23.7739 37 19 37C14.2261 37 9.64812 35.1032 6.27246 31.7275C2.89681 28.3519 1 23.7739 1 19C1 14.2261 2.89681 9.64812 6.27246 6.27246C9.64812 2.89681 14.2261 1 19 1ZM26.75 10.4385C26.2138 10.4478 25.6244 10.5999 24.5947 10.9736C23.5461 11.3542 21.9315 12.0079 19.2979 13.1035C18.3688 13.4901 16.9786 14.0821 15.1289 14.8789L8.2002 17.8838C7.72778 18.073 7.30526 18.2832 6.97656 18.5273C6.66587 18.7582 6.26978 19.1455 6.19531 19.7227L6.19434 19.7275C6.14711 20.11 6.23608 20.4772 6.44824 20.7881C6.64093 21.0704 6.89941 21.2542 7.11523 21.377C7.52444 21.6097 8.07298 21.7774 8.52441 21.9199L8.52539 21.9209L8.93164 22.0469V22.0479C9.43045 22.2104 10.0226 22.3887 10.584 22.5293C11.1206 22.6637 11.7087 22.7836 12.168 22.7939V22.7949C13.0777 22.8181 13.9722 22.4443 14.8223 21.8574C15.5263 21.3823 16.185 20.9411 16.7959 20.5303C16.6587 20.6705 16.5196 20.8087 16.3779 20.9443L16.375 20.9473C16.1608 21.1536 15.9047 21.3989 15.6963 21.6514C15.4903 21.901 15.2503 22.2509 15.1631 22.6924C14.9799 23.6197 15.5283 24.326 16.2402 24.8652L16.5537 25.0859C16.9395 25.3408 17.2871 25.5723 17.6152 25.793L18.5605 26.4336C19.2365 26.8953 19.9162 27.3574 20.7969 27.9365C21.0052 28.0734 21.2056 28.2123 21.3975 28.3525L21.4072 28.3594C22.0753 28.8357 23.0144 29.5495 24.2061 29.5371L24.4482 29.5244C25.5942 29.4173 26.2663 28.4242 26.5801 27.0449L26.6377 26.7646C27.2664 23.4029 28.5119 16.0721 28.8018 13.0166L28.8027 13.0049L28.8037 12.9941C28.827 12.6693 28.8137 12.3423 28.7637 12.0205H28.7617C28.7023 11.5893 28.4914 11.1933 28.1631 10.9062L28.1191 10.8672L28.0713 10.835L27.9219 10.7402C27.5676 10.5357 27.1632 10.4311 26.752 10.4385H26.75Z" stroke="#1E293B" stroke-width="2"/>
</g>
<defs>
<clipPath id="clip0_257_56">
<rect width="38" height="38" fill="white"/>
</clipPath>
</defs>
</svg>
