<svg width="60" height="60" viewBox="0 0 60 60" fill="none" xmlns="http://www.w3.org/2000/svg">
<path d="M30 0.5C37.8239 0.5 45.3271 3.6083 50.8594 9.14062C56.3917 14.6729 59.5 22.1761 59.5 30C59.5 37.8239 56.3917 45.3271 50.8594 50.8594C45.3271 56.3917 37.8239 59.5 30 59.5C22.1761 59.5 14.6729 56.3917 9.14062 50.8594C3.6083 45.3271 0.5 37.8239 0.5 30C0.5 22.1761 3.6083 14.6729 9.14062 9.14062C14.6729 3.6083 22.1761 0.5 30 0.5ZM42.2568 17.5605C41.6043 17.5716 40.8208 17.7543 39.2021 18.3418C37.5737 18.9328 35.0463 19.9538 30.8838 21.6855C27.9593 22.9024 22.1231 25.4169 13.3789 29.2266C12.6593 29.5131 12.0782 29.8088 11.6592 30.1201C11.2499 30.4242 10.9128 30.8046 10.8516 31.2783V31.2812C10.8087 31.6281 10.8872 31.9436 11.0723 32.2148C11.2477 32.4719 11.5013 32.6634 11.7686 32.8154C12.2918 33.1131 13.0268 33.343 13.7842 33.582H13.7852L14.4365 33.7861V33.7871C15.2086 34.0388 16.1187 34.3123 16.9736 34.5264C17.8157 34.7372 18.6444 34.9001 19.2393 34.9131V34.9141L19.2412 34.9131L19.2422 34.9141V34.9131C20.3626 34.9411 21.5513 34.4816 22.792 33.625L22.791 33.624C26.8747 30.8683 29.9703 28.7962 32.0762 27.4043C33.1298 26.7079 33.9341 26.1836 34.4902 25.8301C34.7686 25.6532 34.9811 25.5204 35.1309 25.4316C35.2062 25.387 35.2618 25.3556 35.2988 25.3359C35.3025 25.334 35.3056 25.3316 35.3086 25.3301C35.3389 25.3231 35.3663 25.3168 35.3926 25.3125C35.403 25.3108 35.413 25.3107 35.4219 25.3096C35.3947 25.3471 35.357 25.3984 35.3037 25.4619C35.1763 25.6138 34.9914 25.8152 34.7578 26.0586C34.2919 26.544 33.6533 27.1732 32.9414 27.8584C32.2301 28.5431 31.4499 29.2804 30.7021 29.9814L28.6582 31.8877C27.9504 32.5478 27.4205 33.0388 27.2988 33.1641C27.0716 33.3964 26.8402 33.6249 26.6055 33.8496L26.6045 33.8516C26.254 34.1892 25.8974 34.5311 25.6152 34.873C25.3343 35.2135 25.0867 35.6002 25 36.0391C24.8092 37.0052 25.4357 37.8534 26.7324 38.709V38.708C27.3442 39.1121 27.8949 39.4802 28.415 39.8301L29.9131 40.8457C30.9789 41.5738 32.0472 42.2992 33.4307 43.209C33.774 43.4346 34.1048 43.6641 34.4229 43.8965L34.4268 43.8994C35.6312 44.7581 36.9083 45.6904 38.502 45.543H38.5029C39.6623 45.4345 40.5698 44.3607 40.999 42.0615C41.9924 36.7496 43.9499 25.2205 44.4023 20.4512H44.4033V20.4395C44.4343 20.0076 44.417 19.5734 44.3506 19.1455H44.3486C44.294 18.7147 44.0851 18.3183 43.7578 18.0322L43.7354 18.0127L43.7119 17.9961L43.5479 17.8936C43.1569 17.6677 42.7107 17.552 42.2568 17.5605Z" stroke="black"/>
</svg>
